<svg width="59" height="59" viewBox="0 0 59 59" fill="none" xmlns="http://www.w3.org/2000/svg">
<rect x="0.718872" y="0.695862" width="57.4378" height="57.4378" rx="4.53456" fill="#0054AE"/>
<path d="M26.7134 28.0715L27.3129 29.6805V29.6802C27.3223 29.6888 27.3301 29.6993 27.3357 29.7107C27.6663 30.3724 28.2444 30.8768 28.9447 31.1146V28.9994C28.1323 28.8907 27.3632 28.5708 26.7134 28.0714L26.7134 28.0715Z" fill="white"/>
<path d="M30.895 30.5454C31.1658 30.2831 31.3915 29.9779 31.563 29.6423L32.1551 28.0714H32.1549C31.5087 28.5715 30.7415 28.8919 29.9312 28.9994V31.1123C30.2958 31.0091 30.6277 30.8137 30.895 30.5454Z" fill="white"/>
<path d="M23.8831 19.382C23.9039 21.8959 24.7557 24.3322 26.3054 26.3118C26.9531 27.1755 27.8895 27.778 28.9443 28.0095V13.7517C26.1079 13.927 23.883 15.6407 23.883 19.3822L23.8831 19.382Z" fill="white"/>
<path d="M32.5492 26.3334C34.1089 24.3498 34.9659 21.9048 34.9863 19.3814C34.9863 15.6407 32.7619 13.927 29.9326 13.7509L29.9324 28.0081C30.9752 27.7769 31.9024 27.1833 32.5492 26.333L32.5492 26.3334Z" fill="white"/>
<path d="M16.8017 45.0485L16.574 47.0597H20.122V45.4258L16.8017 45.0485Z" fill="white"/>
<path d="M42.3015 47.0598L42.0738 45.0562L38.7534 45.4266V47.0597L42.3015 47.0598Z" fill="white"/>
<path d="M26.3036 28.4154L26.3118 28.4073L26.3036 28.3748V28.4154Z" fill="white"/>
<path d="M25.7109 34.3398L23.3508 34.9395L24.4056 29.9077L24.1022 30.0672L21.1081 31.6312V47.0593H28.9441V36.9927L25.7109 34.3398Z" fill="white"/>
<path d="M18.1755 33.1637C17.4564 33.5354 16.9759 34.2474 16.9004 35.0534L16.0732 43.9784L20.1221 44.4338V32.147L18.1755 33.1637Z" fill="white"/>
<path d="M34.7732 30.0679L34.4695 29.9086L35.5243 34.9404L33.1639 34.3409L29.931 36.9971L29.9312 47.0605H37.7672V31.6324L34.7732 30.0679ZM36.1923 40.5632H31.6192V37.8585H36.1923V40.5632Z" fill="white"/>
<path d="M42.8024 43.9783L41.9753 35.0533C41.8937 34.2496 41.415 33.5401 40.7001 33.1635L38.7534 32.1466V44.4341L42.8024 43.9783Z" fill="white"/>
<path d="M25.4612 29.6724L24.6414 33.5962L25.9544 33.2621L28.3374 35.2202L25.6736 28.0939L25.4612 29.6724Z" fill="white"/>
<path d="M30.5384 35.2206L32.9214 33.2624L34.2344 33.5966L33.4146 29.6727L33.2022 28.0942L30.5384 35.2206Z" fill="white"/>
<path d="M30.7434 31.851C30.4865 31.9765 30.2131 32.0652 29.9313 32.1145V34.0314L30.7434 31.851Z" fill="white"/>
<path d="M28.125 31.851L28.9448 34.0391V32.1153C28.6604 32.0665 28.3842 31.9775 28.125 31.851Z" fill="white"/>
<path d="M11.7928 11.2765C11.5204 11.2765 11.2996 11.4973 11.2996 11.7697V47.0598C11.2996 47.3322 11.5204 47.553 11.7928 47.553C12.0652 47.553 12.286 47.3322 12.286 47.0598V11.7697C12.286 11.4973 12.0652 11.2765 11.7928 11.2765Z" fill="white"/>
<path d="M21.1086 11.7697C21.1086 11.4973 20.8877 11.2765 20.6153 11.2765C20.3429 11.2765 20.1221 11.4973 20.1221 11.7697V32.1469L21.1088 31.6315L21.1086 11.7697Z" fill="white"/>
<path d="M29.9308 13.7512V11.7697C29.9308 11.4973 29.71 11.2765 29.4376 11.2765C29.1652 11.2765 28.9443 11.4973 28.9443 11.7697V13.7512C29.1067 13.7413 29.2706 13.7337 29.4376 13.7337C29.6045 13.7337 29.7684 13.7413 29.9308 13.7512Z" fill="white"/>
<path d="M38.7537 11.7697C38.7537 11.4973 38.5329 11.2765 38.2605 11.2765C37.9881 11.2765 37.7673 11.4973 37.7673 11.7697V31.6317L38.754 32.147L38.7537 11.7697Z" fill="white"/>
<path d="M47.0829 11.2765C46.8105 11.2765 46.5897 11.4973 46.5897 11.7697V47.0598C46.5897 47.3322 46.8105 47.553 47.0829 47.553C47.3553 47.553 47.5761 47.3322 47.5761 47.0598V11.7697C47.5761 11.4973 47.3553 11.2765 47.0829 11.2765Z" fill="white"/>
</svg>
