<svg width="33" height="35" viewBox="0 0 33 35" fill="none" xmlns="http://www.w3.org/2000/svg">
<path d="M26.4771 16.3863C25.7426 15.6517 24.8703 15.0693 23.9103 14.6725C22.9502 14.2757 21.9213 14.0723 20.8825 14.0739C19.8436 14.0756 18.8154 14.2822 17.8566 14.682C16.8978 15.0818 16.0273 15.667 15.2951 16.4039C14.5594 17.1372 13.9756 18.0086 13.5773 18.968C13.179 19.9275 12.974 20.9561 12.974 21.9949C12.974 23.0337 13.179 24.0623 13.5773 25.0217C13.9756 25.9812 14.5594 26.8525 15.2951 27.5859C16.5627 28.8489 18.2204 29.6458 19.9985 29.8469C21.7766 30.0481 23.5705 29.6415 25.0882 28.6936L30.5561 34.0912L33 31.6473L27.5672 26.1794C29.554 23.0674 29.0968 18.9884 26.4771 16.3863ZM23.9981 25.0893C22.2751 26.8123 19.4971 26.7947 17.7741 25.0893C16.0687 23.3663 16.0687 20.5883 17.7917 18.8653C19.4971 17.1599 22.2751 17.1599 23.9981 18.8653C25.7035 20.5883 25.7035 23.3663 23.9981 25.0893ZM12.7985 30.065C11.6511 28.9057 10.764 27.5151 10.1964 25.986C4.65807 25.0541 0.666992 22.4344 0.666992 19.34V24.6146C0.666992 28.5002 6.96129 31.6473 14.7325 31.6473C14.0292 31.1902 13.3787 30.6627 12.7985 30.065ZM0.666992 10.5491V15.8237C0.666992 18.7774 4.30643 21.3092 9.45791 22.3289V21.9773C9.45791 20.3422 9.80955 18.7247 10.4777 17.2478C4.78114 16.3511 0.666992 13.6963 0.666992 10.5491ZM14.7325 0C6.96129 0 0.666992 3.14715 0.666992 7.03274C0.666992 10.5491 5.94155 13.5029 12.7106 14.0655H12.7985C14.9083 11.8502 17.8269 10.5491 20.8861 10.5491C22.4861 10.5491 24.0684 10.8832 25.5277 11.5337C26.4147 11.1291 27.1819 10.5021 27.7549 9.7134C28.3279 8.92474 28.6872 8.00128 28.7979 7.03274C28.7979 3.14715 22.5036 0 14.7325 0Z" fill="#F24B04"/>
</svg>
