<svg width="58" height="59" viewBox="0 0 58 59" fill="none" xmlns="http://www.w3.org/2000/svg">
<rect x="0.516083" y="0.695862" width="57.4378" height="57.4378" rx="4.53456" fill="#C10074"/>
<path d="M47.3087 44.1899C47.2961 44.1773 47.2961 44.1647 47.2835 44.1521C46.6789 42.7161 45.5327 41.5825 44.0842 40.9779L38.3529 38.5973C37.8869 38.4083 37.5972 37.9549 37.5972 37.4636C37.5972 36.8212 38.0884 36.2922 38.7182 36.2418C40.9477 36.0529 42.8372 35.612 44.2605 35.1838C41.4137 31.6066 40.4817 29.4652 40.192 27.2105C39.8015 24.3638 40.4439 23.268 39.6377 20.3205C39.2221 18.7964 38.3907 15.7734 35.5692 13.5438C33.4279 11.8811 31.1354 11.4151 29.6491 11.2765H29.6239H29.5988C28.125 11.4025 25.82 11.8811 23.6786 13.5438C20.8319 15.7733 20.0132 18.809 19.6101 20.3205C18.8166 23.268 19.4464 24.3765 19.0559 27.2105C18.7536 29.4652 17.8089 31.6066 14.9874 35.1838C16.4107 35.612 18.2875 36.0529 20.5297 36.2418C21.1721 36.2922 21.6507 36.8213 21.6507 37.4636C21.6507 37.9549 21.361 38.4083 20.895 38.5973L15.1386 40.9779C13.7026 41.5825 12.5312 42.7162 11.9393 44.1521C11.9267 44.1647 11.9267 44.1773 11.9141 44.1899C11.0323 46.3438 11.3598 48.2836 11.5362 49.0645H47.6745C47.8635 48.2836 48.191 46.3438 47.3093 44.1899H47.3087Z" fill="white"/>
</svg>
