<svg width="36" height="35" viewBox="0 0 36 35" fill="none" xmlns="http://www.w3.org/2000/svg">
<path d="M31.2033 17.7486V6.9664C31.2033 6.39448 30.9756 5.84599 30.5702 5.44158C30.1648 5.03717 29.615 4.80997 29.0417 4.80997H7.42542C6.85212 4.80997 6.3023 5.03717 5.89692 5.44158C5.49154 5.84599 5.26379 6.39448 5.26379 6.9664V28.5307C5.26379 29.1026 5.49154 29.6511 5.89692 30.0555C6.3023 30.4599 6.85212 30.6871 7.42542 30.6871H18.2336" stroke="white" stroke-width="2.87208" stroke-linecap="round" stroke-linejoin="round"/>
<path d="M23.9979 27.8119C26.3856 27.8119 28.3211 25.881 28.3211 23.499C28.3211 21.1171 26.3856 19.1862 23.9979 19.1862C21.6102 19.1862 19.6746 21.1171 19.6746 23.499C19.6746 25.881 21.6102 27.8119 23.9979 27.8119Z" stroke="white" stroke-width="2.87208"/>
<path d="M27.6006 26.3743L31.2033 29.2495M11.0281 11.9981H25.439M11.0281 17.7486H16.7925" stroke="white" stroke-width="2.87208" stroke-linecap="round" stroke-linejoin="round"/>
</svg>
