<svg width="59" height="59" viewBox="0 0 59 59" fill="none" xmlns="http://www.w3.org/2000/svg">
<rect x="0.617493" y="0.695862" width="57.4378" height="57.4378" rx="4.53456" fill="#5C3E11"/>
<path d="M10.6915 43.1413C10.7532 42.4009 11.4319 41.5987 12.0797 41.0743C13.7456 39.6861 15.4732 38.4213 17.2935 37.2798V37.2181H17.4169C18.9286 36.2617 20.471 35.398 22.0752 34.5958C22.5997 34.3181 22.7539 32.9299 22.7848 32.7139C23.1241 30.9245 22.3837 29.3204 21.6742 27.8396C21.2423 26.9141 20.5019 26.0502 20.2551 25.0014C20.1317 24.5078 20.0392 24.0142 19.9775 23.5206C19.8849 22.7493 19.9775 22.0397 20.9338 21.8547V21.7313C20.4094 19.9112 20.4094 18.307 20.8104 16.9187V16.857C20.8721 15.5304 21.3657 14.3581 22.5998 13.7103C23.2785 12.9699 24.0806 12.322 24.9444 11.8284C26.0242 11.088 27.3199 10.6253 28.6156 10.5635H28.739H28.8932H29.0475H29.2018H29.356H29.4794C30.7751 10.6561 32.0708 11.088 33.1506 11.8284C34.0144 12.3529 34.8164 12.9699 35.4643 13.7103C36.6983 14.3273 37.1919 15.5304 37.2537 16.857V16.9187C37.6239 18.3069 37.6548 19.9112 37.1303 21.7004V21.8547C38.0866 22.0398 38.1792 22.7494 38.0866 23.5205C38.0249 24.0141 37.9324 24.5077 37.809 25.0013C37.5313 26.0503 36.8218 26.914 36.3899 27.8396C35.6804 29.3204 34.94 30.9246 35.2793 32.7138C35.3102 32.9298 35.4644 34.349 35.9889 34.5958C37.5622 35.3979 39.0739 36.2616 40.5856 37.1872C40.6782 37.218 40.8633 37.218 40.8633 37.218V37.4031C42.6834 38.5137 44.3494 39.7477 45.9536 41.0743C46.6015 41.5987 47.2802 42.37 47.3726 43.1412C47.5577 45.1156 47.4343 47.2443 47.4343 49.0645H40.8941H17.4789H10.7535C10.6301 47.2443 10.5066 45.1156 10.6918 43.1412L10.6915 43.1413Z" fill="white"/>
</svg>
