<svg width="34" height="39" viewBox="0 0 34 39" fill="none" xmlns="http://www.w3.org/2000/svg">
<path d="M17 23.6248C16.4648 23.6248 16.0165 23.4435 15.6551 23.0808C15.2924 22.7194 15.1111 22.2711 15.1111 21.7359C15.1111 21.2007 15.2924 20.7518 15.6551 20.3891C16.0165 20.0277 16.4648 19.847 17 19.847C17.5352 19.847 17.9841 20.0277 18.3468 20.3891C18.7082 20.7518 18.8889 21.2007 18.8889 21.7359C18.8889 22.2711 18.7082 22.7194 18.3468 23.0808C17.9841 23.4435 17.5352 23.6248 17 23.6248ZM9.44444 23.6248C8.90926 23.6248 8.46033 23.4435 8.09767 23.0808C7.73626 22.7194 7.55556 22.2711 7.55556 21.7359C7.55556 21.2007 7.73626 20.7518 8.09767 20.3891C8.46033 20.0277 8.90926 19.847 9.44444 19.847C9.97963 19.847 10.4286 20.0277 10.7912 20.3891C11.1526 20.7518 11.3333 21.2007 11.3333 21.7359C11.3333 22.2711 11.1526 22.7194 10.7912 23.0808C10.4286 23.4435 9.97963 23.6248 9.44444 23.6248ZM24.5556 23.6248C24.0204 23.6248 23.5721 23.4435 23.2107 23.0808C22.848 22.7194 22.6667 22.2711 22.6667 21.7359C22.6667 21.2007 22.848 20.7518 23.2107 20.3891C23.5721 20.0277 24.0204 19.847 24.5556 19.847C25.0907 19.847 25.539 20.0277 25.9004 20.3891C26.2631 20.7518 26.4444 21.2007 26.4444 21.7359C26.4444 22.2711 26.2631 22.7194 25.9004 23.0808C25.539 23.4435 25.0907 23.6248 24.5556 23.6248ZM17 31.1804C16.4648 31.1804 16.0165 30.999 15.6551 30.6364C15.2924 30.2749 15.1111 29.8266 15.1111 29.2915C15.1111 28.7563 15.2924 28.308 15.6551 27.9466C16.0165 27.5839 16.4648 27.4026 17 27.4026C17.5352 27.4026 17.9841 27.5839 18.3468 27.9466C18.7082 28.308 18.8889 28.7563 18.8889 29.2915C18.8889 29.8266 18.7082 30.2749 18.3468 30.6364C17.9841 30.999 17.5352 31.1804 17 31.1804ZM9.44444 31.1804C8.90926 31.1804 8.46033 30.999 8.09767 30.6364C7.73626 30.2749 7.55556 29.8266 7.55556 29.2915C7.55556 28.7563 7.73626 28.308 8.09767 27.9466C8.46033 27.5839 8.90926 27.4026 9.44444 27.4026C9.97963 27.4026 10.4286 27.5839 10.7912 27.9466C11.1526 28.308 11.3333 28.7563 11.3333 29.2915C11.3333 29.8266 11.1526 30.2749 10.7912 30.6364C10.4286 30.999 9.97963 31.1804 9.44444 31.1804ZM24.5556 31.1804C24.0204 31.1804 23.5721 30.999 23.2107 30.6364C22.848 30.2749 22.6667 29.8266 22.6667 29.2915C22.6667 28.7563 22.848 28.308 23.2107 27.9466C23.5721 27.5839 24.0204 27.4026 24.5556 27.4026C25.0907 27.4026 25.539 27.5839 25.9004 27.9466C26.2631 28.308 26.4444 28.7563 26.4444 29.2915C26.4444 29.8266 26.2631 30.2749 25.9004 30.6364C25.539 30.999 25.0907 31.1804 24.5556 31.1804ZM3.77778 38.7359C2.73889 38.7359 1.84922 38.3663 1.10878 37.6271C0.369592 36.8867 0 35.997 0 34.9581V8.51369C0 7.4748 0.369592 6.58576 1.10878 5.84657C1.84922 5.10613 2.73889 4.73591 3.77778 4.73591H5.66667V2.84702C5.66667 2.31183 5.84737 1.86291 6.20878 1.50024C6.57144 1.13883 7.02037 0.95813 7.55556 0.95813C8.09074 0.95813 8.53967 1.13883 8.90233 1.50024C9.26374 1.86291 9.44444 2.31183 9.44444 2.84702V4.73591H24.5556V2.84702C24.5556 2.31183 24.7369 1.86291 25.0996 1.50024C25.461 1.13883 25.9093 0.95813 26.4444 0.95813C26.9796 0.95813 27.4279 1.13883 27.7893 1.50024C28.152 1.86291 28.3333 2.31183 28.3333 2.84702V4.73591H30.2222C31.2611 4.73591 32.1508 5.10613 32.8912 5.84657C33.6304 6.58576 34 7.4748 34 8.51369V34.9581C34 35.997 33.6304 36.8867 32.8912 37.6271C32.1508 38.3663 31.2611 38.7359 30.2222 38.7359H3.77778ZM3.77778 34.9581H30.2222V16.0692H3.77778V34.9581Z" fill="white"/>
</svg>
