<svg width="34" height="34" viewBox="0 0 34 34" fill="none" xmlns="http://www.w3.org/2000/svg">
<path d="M1.41666 4.25002V7.08335H32.5833V4.25002C32.5833 3.49857 32.2848 2.7779 31.7535 2.24655C31.2221 1.7152 30.5014 1.41669 29.75 1.41669H4.24999C3.49854 1.41669 2.77787 1.7152 2.24652 2.24655C1.71517 2.7779 1.41666 3.49857 1.41666 4.25002ZM5.66666 5.66669C5.38647 5.66669 5.11257 5.5836 4.8796 5.42794C4.64663 5.27227 4.46505 5.05102 4.35783 4.79216C4.2506 4.53329 4.22255 4.24845 4.27721 3.97364C4.33187 3.69884 4.4668 3.44641 4.66492 3.24829C4.86305 3.05016 5.11547 2.91524 5.39028 2.86057C5.66508 2.80591 5.94993 2.83397 6.20879 2.94119C6.46765 3.04841 6.68891 3.22999 6.84457 3.46296C7.00024 3.69593 7.08332 3.96983 7.08332 4.25002C7.08332 4.62574 6.93407 4.98608 6.66839 5.25175C6.40271 5.51743 6.04238 5.66669 5.66666 5.66669ZM9.91666 5.66669C9.63647 5.66669 9.36257 5.5836 9.1296 5.42794C8.89663 5.27227 8.71505 5.05102 8.60783 4.79216C8.5006 4.53329 8.47255 4.24845 8.52721 3.97364C8.58187 3.69884 8.7168 3.44641 8.91492 3.24829C9.11305 3.05016 9.36547 2.91524 9.64028 2.86057C9.91508 2.80591 10.1999 2.83397 10.4588 2.94119C10.7177 3.04841 10.9389 3.22999 11.0946 3.46296C11.2502 3.69593 11.3333 3.96983 11.3333 4.25002C11.3322 4.6254 11.1826 4.98508 10.9172 5.25052C10.6517 5.51595 10.292 5.66557 9.91666 5.66669ZM1.41666 8.50002V28.3334C1.41666 29.0848 1.71517 29.8055 2.24652 30.3368C2.77787 30.8682 3.49854 31.1667 4.24999 31.1667H29.75C30.5014 31.1667 31.2221 30.8682 31.7535 30.3368C32.2848 29.8055 32.5833 29.0848 32.5833 28.3334V8.50002H1.41666ZM17 26.9167C15.1214 26.9167 13.3197 26.1704 11.9913 24.842C10.6629 23.5136 9.91666 21.712 9.91666 19.8334C9.91666 17.9547 10.6629 16.1531 11.9913 14.8247C13.3197 13.4963 15.1214 12.75 17 12.75V19.8334H24.0833C24.0833 21.712 23.337 23.5136 22.0087 24.842C20.6803 26.1704 18.8786 26.9167 17 26.9167Z" fill="#DE0093"/>
</svg>
