<svg width="34" height="34" viewBox="0 0 34 34" fill="none" xmlns="http://www.w3.org/2000/svg">
<g clip-path="url(#clip0_689_687)">
<path d="M4.12603 8.49962C3.27709 7.70693 3.46489 6.8799 3.74977 6.59489L6.40901 3.93452C7.21631 3.12695 7.97613 3.507 8.16605 3.69698C8.35597 3.88704 10.7778 6.40483 10.7778 6.40483V17.3312C11.157 25.7385 23.4093 25.0113 23.4093 16.381V6.40483L25.9577 3.91872C25.9577 3.91872 26.789 3.04441 27.517 3.77289C28.2451 4.50136 30.2713 6.52821 30.2713 6.52821C30.2713 6.52821 31.023 7.46581 30.0099 8.47923L27.7479 10.8054C27.6215 12.9806 27.849 13.9924 29.3913 14.0177L32.9563 14.0682C33.4762 14.1999 33.8944 14.4306 33.9586 15.007C33.9586 15.007 34.0701 18.8751 33.9276 19.3027C33.7851 19.7302 33.4393 20.0299 32.6683 20.069H29.0626L27.5204 21.8082C27.2938 22.1917 27.2727 22.6175 27.4792 23.1148C27.4792 23.1148 29.6262 25.2556 30.3015 26.007C30.7427 26.498 30.6431 27.165 30.4373 27.4816C30.4373 27.4816 28.0474 29.9041 27.5881 30.3637C27.0499 30.9021 26.1477 30.4112 26.1477 30.4112L23.3935 27.6875C21.0009 27.6348 20.4493 27.9408 20.1327 28.9385C20.1327 28.9385 20.0862 31.6542 20.0862 32.6912C20.0862 33.7282 19.2922 33.9612 18.8194 33.9612C18.3466 33.9612 16.4966 34 15.2577 34C14.0188 34 14.0544 32.7706 14.0544 32.7706V29.3502C14.0544 28.9752 12.6168 27.7509 12.6168 27.7509C12.186 27.509 11.4826 27.3792 10.8836 27.6512C10.8836 27.6512 8.86252 29.6986 8.19773 30.332C7.53287 30.9654 6.64648 30.3637 6.64648 30.3637C6.64648 30.3637 4.43044 28.3368 3.82893 27.7033C3.22742 27.0699 3.67061 26.1831 3.67061 26.1831L6.39327 23.3328C6.45656 21.9076 6.58326 20.6909 5.22187 20.1341H1.20136C-0.476456 20.1341 0.0933101 15.431 0.0933101 15.431C0.0933101 14.1483 1.23297 14.0058 1.23297 14.0058H4.79447C5.19623 14.0058 5.88247 13.2718 6.39812 12.6369C7.10554 11.7705 6.57429 10.6083 4.12603 8.49962ZM20.0282 11.621L20.0061 1.06836C20.0674 -0.411902 14.0104 -0.319531 14.0544 1.13164V11.583C16.6426 10.4077 17.6364 10.5425 20.0282 11.621Z" fill="#F29304"/>
</g>
<defs>
<clipPath id="clip0_689_687">
<rect width="34" height="34" fill="white"/>
</clipPath>
</defs>
</svg>
