<svg width="34" height="35" viewBox="0 0 34 35" fill="none" xmlns="http://www.w3.org/2000/svg">
<g clip-path="url(#clip0_689_751)">
<path d="M7.4375 0.95813C7.71929 0.95813 7.98954 1.07007 8.1888 1.26933C8.38806 1.46859 8.5 1.73884 8.5 2.02063V3.08313H25.5V2.02063C25.5 1.73884 25.6119 1.46859 25.8112 1.26933C26.0105 1.07007 26.2807 0.95813 26.5625 0.95813C26.8443 0.95813 27.1145 1.07007 27.3138 1.26933C27.5131 1.46859 27.625 1.73884 27.625 2.02063V3.08313H29.75C30.8772 3.08313 31.9582 3.5309 32.7552 4.32793C33.5522 5.12496 34 6.20596 34 7.33313V30.7081C34 31.8353 33.5522 32.9163 32.7552 33.7133C31.9582 34.5104 30.8772 34.9581 29.75 34.9581H4.25C3.12283 34.9581 2.04183 34.5104 1.2448 33.7133C0.447767 32.9163 0 31.8353 0 30.7081V7.33313C0 6.20596 0.447767 5.12496 1.2448 4.32793C2.04183 3.5309 3.12283 3.08313 4.25 3.08313H6.375V2.02063C6.375 1.73884 6.48694 1.46859 6.6862 1.26933C6.88546 1.07007 7.15571 0.95813 7.4375 0.95813ZM4.25 5.20813C3.68641 5.20813 3.14591 5.43201 2.7474 5.83053C2.34888 6.22904 2.125 6.76954 2.125 7.33313V30.7081C2.125 31.2717 2.34888 31.8122 2.7474 32.2107C3.14591 32.6092 3.68641 32.8331 4.25 32.8331H29.75C30.3136 32.8331 30.8541 32.6092 31.2526 32.2107C31.6511 31.8122 31.875 31.2717 31.875 30.7081V7.33313C31.875 6.76954 31.6511 6.22904 31.2526 5.83053C30.8541 5.43201 30.3136 5.20813 29.75 5.20813H4.25Z" fill="white"/>
<path d="M5.3125 9.45813C5.3125 9.17634 5.42444 8.90609 5.6237 8.70683C5.82296 8.50757 6.09321 8.39563 6.375 8.39563H27.625C27.9068 8.39563 28.177 8.50757 28.3763 8.70683C28.5756 8.90609 28.6875 9.17634 28.6875 9.45813V11.5831C28.6875 11.8649 28.5756 12.1352 28.3763 12.3344C28.177 12.5337 27.9068 12.6456 27.625 12.6456H6.375C6.09321 12.6456 5.82296 12.5337 5.6237 12.3344C5.42444 12.1352 5.3125 11.8649 5.3125 11.5831V9.45813ZM23.375 16.8956C23.375 16.6138 23.4869 16.3436 23.6862 16.1443C23.8855 15.9451 24.1557 15.8331 24.4375 15.8331H26.5625C26.8443 15.8331 27.1145 15.9451 27.3138 16.1443C27.5131 16.3436 27.625 16.6138 27.625 16.8956V19.0206C27.625 19.3024 27.5131 19.5727 27.3138 19.7719C27.1145 19.9712 26.8443 20.0831 26.5625 20.0831H24.4375C24.1557 20.0831 23.8855 19.9712 23.6862 19.7719C23.4869 19.5727 23.375 19.3024 23.375 19.0206V16.8956ZM17 16.8956C17 16.6138 17.1119 16.3436 17.3112 16.1443C17.5105 15.9451 17.7807 15.8331 18.0625 15.8331H20.1875C20.4693 15.8331 20.7395 15.9451 20.9388 16.1443C21.1381 16.3436 21.25 16.6138 21.25 16.8956V19.0206C21.25 19.3024 21.1381 19.5727 20.9388 19.7719C20.7395 19.9712 20.4693 20.0831 20.1875 20.0831H18.0625C17.7807 20.0831 17.5105 19.9712 17.3112 19.7719C17.1119 19.5727 17 19.3024 17 19.0206V16.8956ZM6.375 23.2706C6.375 22.9888 6.48694 22.7186 6.6862 22.5193C6.88546 22.3201 7.15571 22.2081 7.4375 22.2081H9.5625C9.84429 22.2081 10.1145 22.3201 10.3138 22.5193C10.5131 22.7186 10.625 22.9888 10.625 23.2706V25.3956C10.625 25.6774 10.5131 25.9477 10.3138 26.1469C10.1145 26.3462 9.84429 26.4581 9.5625 26.4581H7.4375C7.15571 26.4581 6.88546 26.3462 6.6862 26.1469C6.48694 25.9477 6.375 25.6774 6.375 25.3956V23.2706ZM12.75 23.2706C12.75 22.9888 12.8619 22.7186 13.0612 22.5193C13.2605 22.3201 13.5307 22.2081 13.8125 22.2081H15.9375C16.2193 22.2081 16.4895 22.3201 16.6888 22.5193C16.8881 22.7186 17 22.9888 17 23.2706V25.3956C17 25.6774 16.8881 25.9477 16.6888 26.1469C16.4895 26.3462 16.2193 26.4581 15.9375 26.4581H13.8125C13.5307 26.4581 13.2605 26.3462 13.0612 26.1469C12.8619 25.9477 12.75 25.6774 12.75 25.3956V23.2706Z" fill="white"/>
</g>
<defs>
<clipPath id="clip0_689_751">
<rect width="34" height="34" fill="white" transform="translate(0 0.95813)"/>
</clipPath>
</defs>
</svg>
